Coordinates
version=1
nRows=29
nColumns=24
inDegrees=yes

Units are S.I. units (second, meters, Newtons, ...)
Angles are in degrees.

endheader
time	pelvis_tilt	pelvis_list	pelvis_rotation	pelvis_tx	pelvis_ty	pelvis_tz	hip_flexion_r	hip_adduction_r	hip_rotation_r	knee_angle_r	ankle_angle_r	subtalar_angle_r	mtp_angle_r	hip_flexion_l	hip_adduction_l	hip_rotation_l	knee_angle_l	ankle_angle_l	subtalar_angle_l	mtp_angle_l	lumbar_extension	lumbar_bending	lumbar_rotation
      0.72416667	      0.50606219	     -2.20891833	      2.61551867	     -0.40057006	      0.99155717	      0.30821983	     11.32984879	      6.29703069	     -2.88609518	    -19.16857966	      8.89758258	     -6.89858567	      2.26923651	     20.51954882	     -2.29804758	     -0.02602727	    -72.10512379	     -6.89241253	    -10.24140991	      0.93215426	     -1.60785047	      5.63994087	      2.93928905
      0.72833333	      0.50724277	     -2.13390535	      2.56455201	     -0.39535933	      0.99240999	      0.30844113	     10.77893082	      6.23969702	     -2.90829268	    -18.76843901	      8.97887854	     -6.76313402	      2.26893999	     21.12330456	     -2.17436914	     -0.02485609	    -71.90106915	     -6.33117513	    -10.50736288	      0.86910148	     -1.63552491	      5.54538757	      3.01071816
      0.73250000	      0.58247906	     -2.04968954	      2.52009406	     -0.39009004	      0.99338467	      0.30863139	     10.11794467	      6.16922930	     -2.95185748	    -18.30713402	      9.02752401	     -6.47272208	      2.26793092	     21.60886412	     -2.03994602	     -0.01597380	    -71.60125451	     -5.79137813	    -10.69424205	      0.71621567	     -1.75011832	      5.45368830	      3.17822378
      0.73666667	      0.62650087	     -1.95125515	      2.45576112	     -0.38484253	      0.99428756	      0.30883299	      9.50801112	      6.08338366	     -2.97088310	    -17.88489321	      9.10029127	     -6.22988986	      2.26895272	     22.10547422	     -1.89654278	     -0.03660059	    -71.23253736	     -5.23606520	    -10.88858544	      0.55257559	     -1.83023679	      5.34603743	      3.32564668
      0.74083333	      0.67191422	     -1.84443838	      2.37901944	     -0.37959221	      0.99515419	      0.30904043	      8.90003208	      5.98808557	     -2.98128785	    -17.47053432	      9.17686646	     -5.99879325	      2.27267037	     22.57619956	     -1.74957788	     -0.07367724	    -70.79605704	     -4.67755572	    -11.06533463	      0.40443775	     -1.90629671	      5.22985504	      3.46760270
      0.74500000	      0.70434976	     -1.74940073	      2.29304974	     -0.37435153	      0.99596076	      0.30925892	      8.30759972	      5.90667388	     -2.97278311	    -17.05506135	      9.24968546	     -5.78224573	      2.27786131	     23.04283791	     -1.62100586	     -0.11833191	    -70.30131526	     -4.11099497	    -11.21222903	      0.27166157	     -1.97048346	      5.12534961	      3.61625959
      0.74916667	      0.72159239	     -1.65384040	      2.19891674	     -0.36912293	      0.99669328	      0.30948103	      7.73795153	      5.82277971	     -2.95640639	    -16.65026261	      9.32725350	     -5.55563241	      2.28482967	     23.50719508	     -1.49640415	     -0.17217137	    -69.74910964	     -3.53880376	    -11.33093311	      0.13450190	     -2.02088470	      5.01549777	      3.78190246
      0.75333333	      0.75291897	     -1.55253966	      2.09117187	     -0.36388797	      0.99741483	      0.30970792	      7.15465717	      5.73179245	     -2.93284983	    -16.24933028	      9.40632840	     -5.33126847	      2.29324559	     23.92833242	     -1.37280075	     -0.24457331	    -69.12763467	     -2.97086588	    -11.44173876	     -0.00635892	     -2.08521557	      4.90090712	      3.95209216
      0.75750000	      0.77780962	     -1.44512796	      1.97538185	     -0.35865903	      0.99808745	      0.30993948	      6.58162951	      5.63300051	     -2.89801361	    -15.85309956	      9.48645822	     -5.10506993	      2.30292232	     24.33398712	     -1.24833221	     -0.32930411	    -68.44277302	     -2.40727172	    -11.52663806	     -0.13211966	     -2.14633671	      4.77450966	      4.11755962
      0.76166667	      0.80976141	     -1.34811073	      1.85173311	     -0.35342679	      0.99871492	      0.31017253	      6.00188752	      5.54452873	     -2.85793236	    -15.45652276	      9.56387388	     -4.87906245	      2.31387827	     24.70990154	     -1.14087627	     -0.42030341	    -67.70210963	     -1.84345948	    -11.59024121	     -0.25674694	     -2.21155421	      4.66702287	      4.29179522
      0.76583333	      0.81887432	     -1.25246660	      1.72177957	     -0.34820900	      0.99925909	      0.31040113	      5.45512557	      5.45400040	     -2.81191264	    -15.07327414	      9.64408402	     -4.64722862	      2.32723151	     25.09185781	     -1.03579541	     -0.51468978	    -66.90628909	     -1.28852531	    -11.63535701	     -0.39754955	     -2.25397614	      4.56579264	      4.47706249
      0.77000000	      0.84508429	     -1.15907378	      1.58202288	     -0.34297991	      0.99978320	      0.31064276	      4.88819688	      5.36627669	     -2.75575187	    -14.68570146	      9.72045675	     -4.43743156	      2.33983005	     25.43078758	     -0.94524589	     -0.62856594	    -66.05132554	     -0.74418056	    -11.67129962	     -0.51811127	     -2.31258021	      4.45626710	      4.64031729
      0.77416667	      0.82038731	     -1.07709104	      1.42347433	     -0.33779633	      1.00015969	      0.31087515	      4.39770936	      5.28788783	     -2.66296118	    -14.33488930	      9.79340674	     -4.26138992	      2.34912380	     25.80966945	     -0.86396435	     -0.74364602	    -65.15264037	     -0.20110501	    -11.72031105	     -0.59027999	     -2.31993725	      4.38391338	      4.75907344
      0.77833333	      0.87454993	     -0.99321012	      1.30023298	     -0.33255488	      1.00063094	      0.31108448	      3.78865603	      5.20623186	     -2.62325416	    -13.91649796	      9.86974984	     -4.01765301	      2.36482441	     26.07517560	     -0.77813763	     -0.83577212	    -64.18393841	      0.28654107	    -11.69143926	     -0.73748299	     -2.41560219	      4.28837341	      4.99156807
      0.78250000	      0.85115079	     -0.91966324	      1.13024812	     -0.32736791	      1.00090395	      0.31132618	      3.30042785	      5.13378078	     -2.52161403	    -13.56767457	      9.94004819	     -3.84450784	      2.37508006	     26.41024565	     -0.71951850	     -0.97045744	    -63.17939444	      0.78630262	    -11.71364495	     -0.81754458	     -2.42110771	      4.21116145	      5.10246361
      0.78666667	      0.88295238	     -0.85265256	      1.00368641	     -0.32213435	      1.00121296	      0.31152422	      2.72449897	      5.06580935	     -2.47699100	    -13.16105688	     10.01540428	     -3.61548525	      2.39162676	     26.66398229	     -0.65455039	     -1.06292300	    -62.11843200	      1.23213796	    -11.66835359	     -0.96986320	     -2.49356867	      4.13485348	      5.32096936
      0.79083333	      0.88590407	     -0.79144908	      0.85814108	     -0.31692545	      1.00142412	      0.31172986	      2.19526008	      5.00265534	     -2.40707685	    -12.78226366	     10.08719879	     -3.41773754	      2.40929785	     26.92961991	     -0.60189639	     -1.17217233	    -61.01060729	      1.65992606	    -11.64830872	     -1.13644076	     -2.53187451	      4.06796272	      5.48184506
      0.79500000	      0.87288759	     -0.74281575	      0.71149228	     -0.31172280	      1.00154016	      0.31191737	      1.69450081	      4.94765312	     -2.35720711	    -12.42196216	     10.15196366	     -3.20039360	      2.44275689	     27.19564347	     -0.55910083	     -1.27551395	    -59.86461065	      2.10157831	    -11.65529046	     -1.49532900	     -2.55335514	      4.02343543	      5.67986877
      0.79916667	      0.84747317	     -0.67953210	      0.54648812	     -0.30652342	      1.00161919	      0.31213690	      1.20643934	      4.88168632	     -2.23447985	    -12.06201707	     10.23174520	     -3.06835598	      2.45274943	     27.44463939	     -0.51413689	     -1.40323308	    -58.64858857	      2.43447740	    -11.60288322	     -1.57813787	     -2.55520294	      3.95046899	      5.72681868
      0.80333333	      0.83875966	     -0.63813220	      0.41008071	     -0.30130876	      1.00165667	      0.31231035	      0.68921990	      4.83630020	     -2.15648768	    -11.67467475	     10.29599115	     -2.92449261	      2.46227111	     27.66110093	     -0.47893931	     -1.49886870	    -57.39695631	      2.77325322	    -11.55545066	     -1.67357744	     -2.58194308	      3.90898677	      5.84110612
      0.80750000	      0.82787724	     -0.60691869	      0.29030288	     -0.29607931	      1.00161674	      0.31247194	      0.17025074	      4.80032843	     -2.11290196	    -11.27870931	     10.36985871	     -2.77392757	      2.47380302	     27.86664121	     -0.45355987	     -1.58662222	    -56.11236061	      3.06738275	    -11.49960927	     -1.80674174	     -2.60034456	      3.87287084	      5.98114656
      0.81166667	      0.78633562	     -0.57058609	      0.15141600	     -0.29088736	      1.00150915	      0.31262377	     -0.29469253	      4.75663705	     -2.02342684	    -10.92213312	     10.44180781	     -2.64467260	      2.48201044	     28.07550336	     -0.41679000	     -1.66696566	    -54.76545057	      3.33832949	    -11.44957643	     -1.89744948	     -2.59333731	      3.84089846	      6.06120345
      0.81583333	      0.78516890	     -0.53697096	      0.03703990	     -0.28565512	      1.00141420	      0.31275542	     -0.82216947	      4.71627036	     -1.97469453	    -10.52885121	     10.51514917	     -2.51824565	      2.48936983	     28.21850413	     -0.37992716	     -1.74028840	    -53.37310590	      3.57109812	    -11.38821390	     -1.99547234	     -2.62319065	      3.80104322	      6.15651857
      0.82000000	      0.76306921	     -0.50876083	     -0.07436877	     -0.28042976	      1.00123442	      0.31286922	     -1.32115546	      4.68041096	     -1.92681899	    -10.14570785	     10.58514646	     -2.40351597	      2.49536883	     28.36373197	     -0.34581144	     -1.80883557	    -51.94050629	      3.77607700	    -11.31473720	     -2.09710962	     -2.63918758	      3.77659548	      6.24168961
      0.82416667	      0.75093462	     -0.49734696	     -0.17129064	     -0.27520116	      1.00100125	      0.31297020	     -1.83084272	      4.66321121	     -1.89734709	     -9.76329559	     10.66264371	     -2.30242576	      2.50029765	     28.48241711	     -0.32565716	     -1.86294948	    -50.47797836	      3.95630500	    -11.22508913	     -2.20015023	     -2.65731205	      3.76758087	      6.31396972
      0.82833333	      0.73242600	     -0.49267832	     -0.24389397	     -0.26995572	      1.00071753	      0.31304166	     -2.34285081	      4.65507928	     -1.89577397	     -9.36314435	     10.74304216	     -2.21003433	      2.50383401	     28.58848516	     -0.30015224	     -1.89219612	    -48.97765536	      4.10309013	    -11.13807652	     -2.34407399	     -2.66561498	      3.76622650	      6.38905204
      0.83250000	      0.69023081	     -0.46167792	     -0.34414649	     -0.26473338	      1.00037383	      0.31313316	     -2.80297951	      4.61517502	     -1.86511699	     -9.01621513	     10.82647763	     -2.12778596	      2.50545399	     28.68560994	     -0.25906453	     -1.95307556	    -47.41813685	      4.22638806	    -11.01912923	     -2.43172218	     -2.65427686	      3.73000726	      6.41839373
      0.83666667	      0.66778294	     -0.45600730	     -0.41015170	     -0.25949754	      0.99999979	      0.31317858	     -3.29920868	      4.60522618	     -1.87053431	     -8.63989142	     10.91408052	     -2.05137277	      2.50460956	     28.74938058	     -0.23014428	     -1.98239402	    -45.83864109	      4.32481739	    -10.89593941	     -2.52294243	     -2.66364238	      3.72805370	      6.45815182
      0.84083333	      0.61579633	     -0.45865324	     -0.46505448	     -0.25426321	      0.99952638	      0.31320364	     -3.75483833	      4.60503337	     -1.88933273	     -8.28173976	     11.00884115	     -1.98339719	      2.50206909	     28.82692881	     -0.20442152	     -1.99831247	    -44.23314110	      4.40519731	    -10.75324456	     -2.61120566	     -2.64138117	      3.74185060	      6.48650877
